<svg enable-background="new 0 0 52.2 44.3" viewBox="0 0 52.2 44.3" xmlns="http://www.w3.org/2000/svg"><g fill="#0167f3"><path d="m25.9 36.8c0 2.4 1.9 4.4 4.4 4.4s4.4-1.9 4.4-4.4c0-2.4-2-4.4-4.4-4.4s-4.4 2.1-4.4 4.4zm2.8 0c0-.8.7-1.5 1.5-1.5s1.5.7 1.5 1.5-.7 1.6-1.5 1.6-1.5-.7-1.5-1.6z"/><path d="m35.9 36.8c0 2.4 1.9 4.4 4.4 4.4 2.4 0 4.4-1.9 4.4-4.4 0-2.4-2-4.4-4.4-4.4-2.4.1-4.4 2.1-4.4 4.4zm2.9 0c0-.8.7-1.5 1.5-1.5s1.5.7 1.5 1.5-.7 1.6-1.5 1.6c-.9 0-1.5-.7-1.5-1.6z"/><path d="m50.7 14.2c-.3-.5-1.2-.8-1.8-.8h-26.9l-2-8.7c-.2-.8-.9-1.5-1.8-1.5h-5c-1 0-1.8.7-1.8 1.7s.7 1.8 1.8 1.8h3.6l5 22.5c.2.8.9 1.5 1.8 1.5h21.1c1.2 0 2.2-.7 2.3-1.8l4-12.4c.4-1 .3-1.8-.3-2.3zm-20.1 12.9h-5.5l-1-4.9h6.4zm0-6.5h-6.7l-.8-3.8h7.5zm7.3 6.5h-5.8v-4.9h5.8zm0-6.5h-5.8v-3.8h5.8zm6.2 6.5h-4.4v-4.9h6zm2.1-6.5h-6.6v-3.8h7.9z"/><path d="m19.7 30.4c0 .1 0 .2-.1.2h-4.2c-.7 0-1.3-.6-1.3-1.3 0-.3.2-.7.3-.8.3-.3.5-.3.8-.3h1.5c.3 0 .7-.2.8-.3.2-.2.3-.3.3-.5.2-.8-.5-1.6-1.3-1.6h-8.8c-.7 0-1.3-.6-1.3-1.3 0-.3.2-.7.3-.8.3-.3.5-.3.8-.3h4.2c.3 0 .7-.2.8-.3s.3-.3.3-.5c.2-.8-.5-1.6-1.3-1.6h-1.3c-.7 0-1.3-.6-1.3-1.3 0-.3.2-.7.3-.8.3-.3.5-.3.8-.3h4.1c.3 0 .7-.2.8-.3.3-.3.3-.5.3-.8 0-.7-.5-1.2-1.1-1.3h-.1-.2-12c-.7 0-1.3-.6-1.3-1.3 0-.3.2-.7.3-.8.3-.3.5-.3.8-.3h8.2c.3 0 .6-.2.8-.3.2-.2.3-.3.3-.5.2-.8-.5-1.6-1.3-1.6h-1.7c-.7 0-1.3-.6-1.3-1.3 0-.6.2-1 .4-1.1.3-.3.5-.3.8-.3h6.9c.1 0 .1 0 .1.1z"/><path d="m13.4 29.3c0 .3-.2.7-.3.8-.3.3-.5.3-.8.3h-2.7c-.7 0-1.3-.5-1.3-1.3 0-.3.2-.7.3-.8.3-.2.6-.3.9-.3h2.6c.8.1 1.3.7 1.3 1.3z"/><path d="m7.9 19.5c0 .3-.2.7-.3.8-.2.3-.5.3-.8.3h-2.6c-.6.2-1.2-.4-1.2-1.1 0-.3.2-.7.3-.8.3-.3.5-.3.8-.3h2.5c.8 0 1.3.6 1.3 1.1z"/></g></svg>