<svg enable-background="new 0 0 245 51.2" viewBox="0 0 245 51.2" xmlns="http://www.w3.org/2000/svg"><g fill="#0167f3"><path d="m32.2 43.1c0 2.9 2.3 5.2 5.2 5.2s5.2-2.3 5.2-5.2-2.4-5.2-5.2-5.2-5.2 2.4-5.2 5.2zm3.4 0c0-1 .8-1.8 1.8-1.8s1.8.8 1.8 1.8-.8 1.9-1.8 1.9-1.8-.9-1.8-1.9z"/><path d="m44.2 43.1c0 2.9 2.3 5.2 5.2 5.2s5.2-2.3 5.2-5.2-2.4-5.2-5.2-5.2-5.2 2.4-5.2 5.2zm3.4 0c0-1 .8-1.8 1.8-1.8s1.8.8 1.8 1.8-.8 1.9-1.8 1.9-1.8-.9-1.8-1.9z"/><path d="m61.8 16.1c-.4-.6-1.4-1-2.2-1h-32l-2.4-10.4c-.2-1-1.1-1.8-2.1-1.8h-5.9c-1.2 0-2.1.8-2.1 2s.8 2.1 2.1 2.1h4.3l5.9 26.8c.2 1 1.1 1.8 2.1 1.8h25.2c1.4 0 2.6-.8 2.8-2.2l4.7-14.5c.5-1.2.3-2.2-.4-2.8zm-23.9 15.4h-6.5l-1.2-5.8h7.6v5.8zm0-7.8h-8l-.9-4.5h8.9zm8.7 7.8h-6.9v-5.8h6.9zm0-7.8h-6.9v-4.5h6.9zm7.3 7.8h-5.3v-5.8h7.2zm2.5-7.8h-7.9v-4.5h9.4z"/><path d="m24.9 35.4c0 .1 0 .2-.1.2h-5c-.8 0-1.5-.7-1.5-1.5 0-.4.2-.8.4-1 .3-.3.6-.4 1-.4h1.8c.4 0 .8-.2 1-.4s.3-.4.4-.6c.2-1-.6-1.9-1.6-1.9h-10.8c-.8 0-1.5-.7-1.5-1.5 0-.4.2-.8.4-1 .3-.3.6-.4 1-.4h5c.4 0 .8-.2 1-.4s.3-.4.4-.6c.2-1-.6-1.9-1.6-1.9h-1.5c-.8 0-1.5-.7-1.5-1.5 0-.4.2-.8.4-1 .3-.3.6-.4 1-.4h4.9c.4 0 .8-.2 1-.4.3-.3.4-.6.4-1 0-.8-.6-1.4-1.3-1.5h-.1-.2-14.3c-.8 0-1.5-.7-1.5-1.5 0-.4.2-.8.4-1 .3-.3.6-.4 1-.4h9.8c.4 0 .7-.2.9-.4s.3-.4.4-.6c.2-1-.6-1.9-1.6-1.9h-2.6c-.8 0-1.5-.7-1.5-1.5 0-.4.2-.8.4-1 .3-.3.6-.4 1-.4h8.2c.1 0 .1 0 .1.1z"/><path d="m17.3 34.1c0 .4-.2.8-.4 1-.3.3-.6.4-1 .4h-3.1c-.8 0-1.5-.6-1.5-1.5 0-.4.2-.8.4-1 .3-.3.6-.4 1-.4h3.1c.9.1 1.5.8 1.5 1.5z"/><path d="m10.8 22.5c0 .4-.2.8-.4 1-.2.3-.6.4-1 .4h-3c-.7.1-1.4-.6-1.4-1.4 0-.4.2-.8.4-1 .3-.3.6-.4 1-.4h3c.8 0 1.4.7 1.4 1.4z"/><path d="m82.1 37.6c-1.8 0-3.5-.3-4.9-1-1.5-.6-2.7-1.6-3.6-2.8s-1.5-2.6-1.8-4.3l4.8-.7c.3 1.4 1 2.5 2.1 3.3s2.3 1.1 3.6 1.1c.8 0 1.5-.1 2.2-.4.7-.2 1.3-.6 1.8-1.1s.7-1 .7-1.7c0-.2 0-.5-.1-.7s-.2-.5-.4-.7-.4-.4-.7-.6-.7-.3-1.2-.5l-6.4-1.9c-.5-.1-1-.3-1.7-.6-.6-.3-1.2-.6-1.8-1.1s-1.1-1.1-1.5-1.8-.6-1.7-.6-2.9c0-1.6.4-3 1.2-4.1s1.9-1.9 3.3-2.4 2.9-.8 4.6-.8 3.2.3 4.5.9 2.4 1.4 3.3 2.4 1.5 2.4 1.9 3.9l-5 .9c-.2-.8-.5-1.5-1-2s-1.1-1-1.7-1.2c-.7-.3-1.4-.4-2.1-.5-.7 0-1.4.1-2.1.3-.6.2-1.2.5-1.6 1-.4.4-.6.9-.6 1.5 0 .5.2 1 .5 1.3s.7.6 1.2.8 1 .4 1.5.5l4.3 1.2c.6.2 1.3.4 2.1.7s1.5.7 2.2 1.2 1.3 1.1 1.8 2c.5.8.7 1.8.7 3.1s-.3 2.5-.8 3.5c-.6 1-1.3 1.8-2.2 2.4s-2 1.1-3.2 1.4-2.1.4-3.3.4z"/><path d="m112.3 26.8v10.3h-4.7v-8.7c0-.4 0-1-.1-1.6 0-.6-.2-1.3-.4-2s-.6-1.2-1.2-1.7c-.5-.4-1.3-.7-2.3-.7-.4 0-.8.1-1.3.2s-.9.4-1.3.7c-.4.4-.7.9-1 1.6s-.4 1.6-.4 2.8v9.3h-4.6v-24.4h4.1v8c.4-.5.9-.9 1.5-1.3 1.2-.8 2.7-1.2 4.5-1.2 1.4 0 2.6.3 3.5.7.9.5 1.6 1.1 2.1 1.8.5.8.9 1.5 1.1 2.4.2.8.4 1.5.4 2.2 0 .8.1 1.3.1 1.6z"/><path d="m124.3 37.6c-1.9 0-3.5-.4-4.9-1.2s-2.5-2-3.3-3.4c-.8-1.5-1.2-3.1-1.2-5s.4-3.6 1.2-5.1 1.9-2.6 3.3-3.4 3-1.2 4.8-1.2c1.9 0 3.5.4 4.9 1.2s2.5 2 3.3 3.4c.8 1.5 1.2 3.1 1.2 5s-.4 3.6-1.2 5.1-1.9 2.6-3.3 3.4c-1.3.8-3 1.2-4.8 1.2zm0-4.3c1.5 0 2.6-.5 3.3-1.5s1.1-2.3 1.1-3.9-.4-2.9-1.1-3.9-1.8-1.5-3.3-1.5c-1 0-1.8.2-2.5.7-.6.5-1.1 1.1-1.4 1.9s-.5 1.7-.5 2.8c0 1.6.4 3 1.1 3.9.8 1 1.8 1.5 3.3 1.5z"/><path d="m153.1 22.9c-.7-1.5-1.7-2.6-3-3.5-1.3-.8-2.8-1.3-4.6-1.3s-3.2.4-4.4 1.3c-.1.1-.2.2-.3.3v-1h-4.1v26.6h4.7v-8.8c1.2.8 2.7 1.2 4.4 1.2s3.2-.4 4.5-1.3 2.3-2 3-3.5 1.1-3.1 1.1-5c-.2-1.9-.5-3.5-1.3-5zm-4.2 7.8c-.3.8-.8 1.5-1.4 2s-1.5.8-2.5.8-1.9-.2-2.5-.7-1.1-1.1-1.3-2c-.3-.8-.4-1.8-.4-2.9s.1-2.1.4-2.9.7-1.5 1.3-2 1.4-.7 2.4-.7 1.9.3 2.5.8c.7.5 1.2 1.2 1.5 2 .3.9.5 1.8.5 2.8-.1 1.1-.2 2-.5 2.8z"/></g><path d="m167.5 37.6c-1.5 0-3-.3-4.4-.8-1.4-.6-2.6-1.4-3.7-2.4s-1.9-2.4-2.5-4-.9-3.4-.9-5.5c0-2.7.5-5 1.6-6.9 1-1.9 2.4-3.4 4.2-4.4s3.7-1.5 5.8-1.5c3.2 0 5.6.7 7.5 2.2 1.8 1.5 3 3.5 3.6 6.2l-4.7.7c-.4-1.4-1.2-2.6-2.2-3.4-1-.9-2.3-1.3-3.9-1.3s-2.9.3-3.9 1-1.8 1.7-2.3 2.9c-.5 1.3-.8 2.8-.8 4.5s.3 3.2.8 4.4c.5 1.3 1.3 2.2 2.3 2.9s2.3 1.1 3.9 1.1c1.1 0 2-.2 2.9-.5s1.6-1 2.2-1.8 1-1.9 1.3-3.2h-3.9v-3.6h8.8c0 .1 0 .4.1.8v.6c0 2.4-.5 4.4-1.4 6.3s-2.3 3.2-4 4.3c-2 .9-4 1.4-6.4 1.4z"/><path d="m192.7 18.7v4.3c-.5-.2-1.1-.2-1.8-.2s-1.3.2-1.8.5-1 .6-1.4 1-.7.9-.8 1.5-.3 1.2-.3 1.9v9.4h-4.7v-18.4h4.1v3c.2-.3.3-.5.5-.8.4-.5.9-1 1.5-1.3.4-.3.9-.5 1.5-.6.5-.2 1.1-.3 1.6-.3.5-.1 1-.1 1.6 0z"/><path d="m195.6 16.2v-4.1h4.6v4.1zm0 20.9v-18.4h4.6v18.4z"/><path d="m216.5 12.6v6.8c-1.1-.8-2.5-1.1-4.2-1.1-1.8 0-3.3.4-4.6 1.3-1.3.8-2.3 2-3 3.5s-1.1 3.1-1.1 5c0 1.8.4 3.5 1.1 5s1.7 2.6 3 3.5 2.8 1.3 4.5 1.3c1.8 0 3.4-.4 4.6-1.3.1-.1.3-.2.4-.3v1.1h4.1v-24.8zm.2 18.3c-.3.8-.7 1.5-1.3 2s-1.4.7-2.5.7c-1 0-1.8-.3-2.5-.8-.6-.5-1.1-1.2-1.4-2s-.5-1.8-.5-2.8.2-2 .5-2.8.8-1.5 1.5-2 1.5-.8 2.5-.8 1.8.2 2.3.7c.6.5 1 1.1 1.3 2 .3.8.4 1.8.4 2.9.1 1 0 2-.3 2.9z"/><path d="m232.5 37.6c-2.3 0-4.2-.5-5.6-1.6s-2.3-2.5-2.6-4.5l4.7-.7c.2.9.6 1.5 1.3 2s1.5.7 2.5.7c.8 0 1.5-.2 1.9-.5.5-.3.7-.8.7-1.4 0-.4-.1-.7-.3-.9s-.6-.4-1.2-.7-1.6-.5-2.9-.9c-1.5-.4-2.7-.8-3.6-1.3s-1.5-1-1.9-1.7-.6-1.5-.6-2.4c0-1.2.3-2.2.9-3.1s1.5-1.5 2.5-2 2.4-.7 3.9-.7c1.4 0 2.7.2 3.8.7 1.1.4 2 1.1 2.7 1.9s1.1 1.8 1.3 2.9l-4.7.9c-.1-.7-.4-1.2-.9-1.6s-1.2-.6-2.1-.7-1.5.1-2.1.3c-.5.3-.8.7-.8 1.2 0 .3.1.6.3.8s.7.4 1.4.7 1.8.5 3.2.9 2.5.8 3.4 1.3c.8.5 1.5 1.1 1.8 1.7.4.7.6 1.5.6 2.4 0 1.9-.7 3.4-2 4.4-1.3 1.4-3.2 1.9-5.6 1.9z"/></svg>